# xmcd
#
# Track frame offsets:
#	150
#	11141
#	24680
#	36647
#	49776
#	61468
#	74164
#	86056
#	100568
#	112543
#	123856
#	134219
#
# Disc length: 1965 seconds
#
# Revision: 1
# Processed by: cddbd v1.5.2PL0 Copyright (c) Steve Scherf et al.
# Submitted via: audiograbber 1.83.01
#
DISCID=ac07ab0c
DTITLE=JOSE ALFREDO - EXITOS
DYEAR=1900
DGENRE=KARAOKE
TTITLE0=SI NOS DEJAN
TTITLE1=ELLA
TTITLE2=LA MEDIA VUELTA
TTITLE3=CORAZON, CORAZON
TTITLE4=LLEGANDO ATI
TTITLE5=UN MUNDO RARO
TTITLE6=QUE TE VAYA BONITO
TTITLE7=CAMINOS DE GUANAJUATO
TTITLE8=LA ESTRELLA
TTITLE9=SERENATA HUASTECA
TTITLE10=EL ULTIMO TRAGO
TTITLE11=GRACIAS
EXTD=
EXTT0=
EXTT1=
EXTT2=
EXTT3=
EXTT4=
EXTT5=
EXTT6=
EXTT7=
EXTT8=
EXTT9=
EXTT10=
EXTT11=
PLAYORDER=
